<svg id="visual" viewBox="0 0 900 600" width="900" height="600" xmlns="http://www.w3.org/2000/svg" xmlns:xlink="http://www.w3.org/1999/xlink" version="1.1"><g stroke-width="1" stroke-linejoin="bevel"><path d="M453 305L454 328L489 309.1Z" fill="#6425f9" stroke="#6425f9"></path><path d="M454 328L471 336.7L489 309.1Z" fill="#570df8" stroke="#570df8"></path><path d="M471 336.7L500 313.9L489 309.1Z" fill="#9d72fe" stroke="#9d72fe"></path><path d="M453 305L430 350.9L454 328Z" fill="#a57dff" stroke="#a57dff"></path><path d="M454 328L430 350.9L471 336.7Z" fill="#9567fe" stroke="#9567fe"></path><path d="M430 350.9L447 380.9L471 336.7Z" fill="#570df8" stroke="#570df8"></path><path d="M471 336.7L540 329L500 313.9Z" fill="#7943fb" stroke="#7943fb"></path><path d="M480 398.7L540 329L471 336.7Z" fill="#9567fe" stroke="#9567fe"></path><path d="M500 313.9L538 283.9L489 309.1Z" fill="#b593ff" stroke="#b593ff"></path><path d="M540 286L538 283.9L500 313.9Z" fill="#8c5bfd" stroke="#8c5bfd"></path><path d="M489 309.1L434 243.1L453 305Z" fill="#b593ff" stroke="#b593ff"></path><path d="M540 329L540 286L500 313.9Z" fill="#7943fb" stroke="#7943fb"></path><path d="M480 204.3L434 243.1L489 309.1Z" fill="#b593ff" stroke="#b593ff"></path><path d="M453 305L402 266.3L430 350.9Z" fill="#b593ff" stroke="#b593ff"></path><path d="M447 380.9L480 398.7L471 336.7Z" fill="#b593ff" stroke="#b593ff"></path><path d="M406 258.1L402 266.3L453 305Z" fill="#7943fb" stroke="#7943fb"></path><path d="M434 243.1L406 258.1L453 305Z" fill="#834ffc" stroke="#834ffc"></path><path d="M540 286L547 273.3L538 283.9Z" fill="#570df8" stroke="#570df8"></path><path d="M538 283.9L544 251L489 309.1Z" fill="#6425f9" stroke="#6425f9"></path><path d="M591 302L547 273.3L540 286Z" fill="#9d72fe" stroke="#9d72fe"></path><path d="M547 273.3L544 251L538 283.9Z" fill="#6425f9" stroke="#6425f9"></path><path d="M434 243.1L411 233.1L406 258.1Z" fill="#834ffc" stroke="#834ffc"></path><path d="M350 254L356 275L402 266.3Z" fill="#9d72fe" stroke="#9d72fe"></path><path d="M480 204.3L411 233.1L434 243.1Z" fill="#ad88ff" stroke="#ad88ff"></path><path d="M393 388.7L406 398.6L430 350.9Z" fill="#ad88ff" stroke="#ad88ff"></path><path d="M430 350.9L406 398.6L447 380.9Z" fill="#ad88ff" stroke="#ad88ff"></path><path d="M447 380.9L463 452.3L480 398.7Z" fill="#570df8" stroke="#570df8"></path><path d="M331 332.9L393 388.7L430 350.9Z" fill="#9d72fe" stroke="#9d72fe"></path><path d="M597 376.9L579 330.7L540 329Z" fill="#570df8" stroke="#570df8"></path><path d="M540 329L579 330.7L540 286Z" fill="#a57dff" stroke="#a57dff"></path><path d="M547 273.3L603 258.1L544 251Z" fill="#a57dff" stroke="#a57dff"></path><path d="M544 251L480 204.3L489 309.1Z" fill="#6425f9" stroke="#6425f9"></path><path d="M603 258.1L542 226.1L544 251Z" fill="#ad88ff" stroke="#ad88ff"></path><path d="M544 251L542 226.1L480 204.3Z" fill="#9567fe" stroke="#9567fe"></path><path d="M384 223.1L402 266.3L406 258.1Z" fill="#8c5bfd" stroke="#8c5bfd"></path><path d="M402 266.3L356 275L430 350.9Z" fill="#9d72fe" stroke="#9d72fe"></path><path d="M579 330.7L591 302L540 286Z" fill="#570df8" stroke="#570df8"></path><path d="M386 210.4L384 223.1L411 233.1Z" fill="#6425f9" stroke="#6425f9"></path><path d="M411 233.1L384 223.1L406 258.1Z" fill="#8c5bfd" stroke="#8c5bfd"></path><path d="M467 159.4L386 210.4L411 233.1Z" fill="#9d72fe" stroke="#9d72fe"></path><path d="M384 223.1L350 254L402 266.3Z" fill="#834ffc" stroke="#834ffc"></path><path d="M386 210.4L350 254L384 223.1Z" fill="#ad88ff" stroke="#ad88ff"></path><path d="M463 452.3L517 443.4L480 398.7Z" fill="#7943fb" stroke="#7943fb"></path><path d="M480 398.7L542 432.6L540 329Z" fill="#8c5bfd" stroke="#8c5bfd"></path><path d="M403 460.6L463 452.3L406 398.6Z" fill="#6f35fa" stroke="#6f35fa"></path><path d="M406 398.6L463 452.3L447 380.9Z" fill="#9d72fe" stroke="#9d72fe"></path><path d="M517 443.4L542 432.6L480 398.7Z" fill="#570df8" stroke="#570df8"></path><path d="M579 330.7L613 339.7L591 302Z" fill="#ad88ff" stroke="#ad88ff"></path><path d="M542 226.1L513 185.4L480 204.3Z" fill="#ad88ff" stroke="#ad88ff"></path><path d="M480 204.3L467 159.4L411 233.1Z" fill="#9567fe" stroke="#9567fe"></path><path d="M303 304.1L331 332.9L356 275Z" fill="#a57dff" stroke="#a57dff"></path><path d="M356 275L331 332.9L430 350.9Z" fill="#7943fb" stroke="#7943fb"></path><path d="M393 388.7L389 430.4L406 398.6Z" fill="#6425f9" stroke="#6425f9"></path><path d="M366 413.6L389 430.4L393 388.7Z" fill="#834ffc" stroke="#834ffc"></path><path d="M542 432.6L597 376.9L540 329Z" fill="#6425f9" stroke="#6425f9"></path><path d="M353 402.9L366 413.6L393 388.7Z" fill="#b593ff" stroke="#b593ff"></path><path d="M648 240L603 258.1L685 270.3Z" fill="#9567fe" stroke="#9567fe"></path><path d="M591 302L603 258.1L547 273.3Z" fill="#9567fe" stroke="#9567fe"></path><path d="M542 226.1L581 190.3L513 185.4Z" fill="#6425f9" stroke="#6425f9"></path><path d="M597 376.9L613 339.7L579 330.7Z" fill="#6f35fa" stroke="#6f35fa"></path><path d="M347 395.7L353 402.9L393 388.7Z" fill="#8c5bfd" stroke="#8c5bfd"></path><path d="M332 378.7L347 395.7L393 388.7Z" fill="#7943fb" stroke="#7943fb"></path><path d="M517 443.4L552 440.6L542 432.6Z" fill="#8c5bfd" stroke="#8c5bfd"></path><path d="M542 432.6L578 421.7L597 376.9Z" fill="#9d72fe" stroke="#9d72fe"></path><path d="M579 489.3L552 440.6L525 513.3Z" fill="#6425f9" stroke="#6425f9"></path><path d="M552 440.6L578 421.7L542 432.6Z" fill="#a57dff" stroke="#a57dff"></path><path d="M597 376.9L655 359.9L613 339.7Z" fill="#570df8" stroke="#570df8"></path><path d="M331 332.9L332 378.7L393 388.7Z" fill="#9567fe" stroke="#9567fe"></path><path d="M325 443.4L366 413.6L353 402.9Z" fill="#8c5bfd" stroke="#8c5bfd"></path><path d="M513 185.4L479 161.6L480 204.3Z" fill="#570df8" stroke="#570df8"></path><path d="M303 304.1L319 350.9L331 332.9Z" fill="#7943fb" stroke="#7943fb"></path><path d="M331 332.9L319 350.9L332 378.7Z" fill="#834ffc" stroke="#834ffc"></path><path d="M479 161.6L467 159.4L480 204.3Z" fill="#570df8" stroke="#570df8"></path><path d="M374 457.6L389 430.4L366 413.6Z" fill="#a57dff" stroke="#a57dff"></path><path d="M374 457.6L403 460.6L389 430.4Z" fill="#6425f9" stroke="#6425f9"></path><path d="M389 430.4L403 460.6L406 398.6Z" fill="#9567fe" stroke="#9567fe"></path><path d="M463 452.3L487 483.3L517 443.4Z" fill="#7943fb" stroke="#7943fb"></path><path d="M374 457.6L366 413.6L325 443.4Z" fill="#6f35fa" stroke="#6f35fa"></path><path d="M316 258.3L314 265.1L350 254Z" fill="#6425f9" stroke="#6425f9"></path><path d="M350 254L314 265.1L356 275Z" fill="#6425f9" stroke="#6425f9"></path><path d="M288 230.4L316 258.3L350 254Z" fill="#b593ff" stroke="#b593ff"></path><path d="M552 440.6L594 427.6L578 421.7Z" fill="#9d72fe" stroke="#9d72fe"></path><path d="M578 421.7L594 427.6L597 376.9Z" fill="#7943fb" stroke="#7943fb"></path><path d="M314 265.1L303 304.1L356 275Z" fill="#ad88ff" stroke="#ad88ff"></path><path d="M603 258.1L581 190.3L542 226.1Z" fill="#9d72fe" stroke="#9d72fe"></path><path d="M513 185.4L542 137.4L479 161.6Z" fill="#834ffc" stroke="#834ffc"></path><path d="M403 460.6L487 483.3L463 452.3Z" fill="#834ffc" stroke="#834ffc"></path><path d="M552 440.6L589 473.4L594 427.6Z" fill="#7943fb" stroke="#7943fb"></path><path d="M325 443.4L353 402.9L347 395.7Z" fill="#9d72fe" stroke="#9d72fe"></path><path d="M502 521.1L525 513.3L487 483.3Z" fill="#6f35fa" stroke="#6f35fa"></path><path d="M628 201.1L596 181.4L581 190.3Z" fill="#8c5bfd" stroke="#8c5bfd"></path><path d="M581 190.3L542 137.4L513 185.4Z" fill="#834ffc" stroke="#834ffc"></path><path d="M479 161.6L447 101.7L467 159.4Z" fill="#a57dff" stroke="#a57dff"></path><path d="M628 201.1L581 190.3L603 258.1Z" fill="#8c5bfd" stroke="#8c5bfd"></path><path d="M636 424.6L655 359.9L597 376.9Z" fill="#ad88ff" stroke="#ad88ff"></path><path d="M685 270.3L603 258.1L591 302Z" fill="#6f35fa" stroke="#6f35fa"></path><path d="M303 304.1L280 331L319 350.9Z" fill="#8c5bfd" stroke="#8c5bfd"></path><path d="M319 350.9L267 408.6L332 378.7Z" fill="#ad88ff" stroke="#ad88ff"></path><path d="M332 378.7L325 443.4L347 395.7Z" fill="#6f35fa" stroke="#6f35fa"></path><path d="M282 265L280 331L303 304.1Z" fill="#9567fe" stroke="#9567fe"></path><path d="M282 265L303 304.1L314 265.1Z" fill="#9567fe" stroke="#9567fe"></path><path d="M590 156.3L542 137.4L581 190.3Z" fill="#8c5bfd" stroke="#8c5bfd"></path><path d="M267 408.6L325 443.4L332 378.7Z" fill="#ad88ff" stroke="#ad88ff"></path><path d="M674 330.9L591 302L613 339.7Z" fill="#9d72fe" stroke="#9d72fe"></path><path d="M288 230.4L282 265L316 258.3Z" fill="#6425f9" stroke="#6425f9"></path><path d="M316 258.3L282 265L314 265.1Z" fill="#a57dff" stroke="#a57dff"></path><path d="M331 164.3L350 254L386 210.4Z" fill="#a57dff" stroke="#a57dff"></path><path d="M648 240L628 201.1L603 258.1Z" fill="#9d72fe" stroke="#9d72fe"></path><path d="M596 181.4L590 156.3L581 190.3Z" fill="#9d72fe" stroke="#9d72fe"></path><path d="M579 489.3L589 473.4L552 440.6Z" fill="#a57dff" stroke="#a57dff"></path><path d="M594 427.6L636 424.6L597 376.9Z" fill="#9567fe" stroke="#9567fe"></path><path d="M630 484.4L636 424.6L594 427.6Z" fill="#8c5bfd" stroke="#8c5bfd"></path><path d="M591 153.6L590 156.3L596 181.4Z" fill="#9d72fe" stroke="#9d72fe"></path><path d="M447 101.7L347 157.6L467 159.4Z" fill="#6f35fa" stroke="#6f35fa"></path><path d="M467 159.4L347 157.6L386 210.4Z" fill="#9567fe" stroke="#9567fe"></path><path d="M331 164.3L288 230.4L350 254Z" fill="#9567fe" stroke="#9567fe"></path><path d="M641 138.4L591 153.6L596 181.4Z" fill="#9d72fe" stroke="#9d72fe"></path><path d="M590 156.3L580 139.7L542 137.4Z" fill="#6425f9" stroke="#6425f9"></path><path d="M679 378.6L674 330.9L655 359.9Z" fill="#9d72fe" stroke="#9d72fe"></path><path d="M655 359.9L674 330.9L613 339.7Z" fill="#9d72fe" stroke="#9d72fe"></path><path d="M525 513.3L552 440.6L517 443.4Z" fill="#ad88ff" stroke="#ad88ff"></path><path d="M589 473.4L630 484.4L594 427.6Z" fill="#9d72fe" stroke="#9d72fe"></path><path d="M502 521.1L487 483.3L399 548.1Z" fill="#b593ff" stroke="#b593ff"></path><path d="M487 483.3L525 513.3L517 443.4Z" fill="#9d72fe" stroke="#9d72fe"></path><path d="M487 483.3L403 460.6L399 548.1Z" fill="#6f35fa" stroke="#6f35fa"></path><path d="M347 157.6L331 164.3L386 210.4Z" fill="#ad88ff" stroke="#ad88ff"></path><path d="M591 153.6L580 139.7L590 156.3Z" fill="#9567fe" stroke="#9567fe"></path><path d="M369 525.4L403 460.6L374 457.6Z" fill="#ad88ff" stroke="#ad88ff"></path><path d="M604 488.4L596 483.6L579 489.3Z" fill="#7943fb" stroke="#7943fb"></path><path d="M579 489.3L596 483.6L589 473.4Z" fill="#9567fe" stroke="#9567fe"></path><path d="M648 240L665 238.3L628 201.1Z" fill="#b593ff" stroke="#b593ff"></path><path d="M641 138.4L580 139.7L591 153.6Z" fill="#ad88ff" stroke="#ad88ff"></path><path d="M629 96.7L581 101.9L580 139.7Z" fill="#8c5bfd" stroke="#8c5bfd"></path><path d="M685 270.3L665 238.3L648 240Z" fill="#9d72fe" stroke="#9d72fe"></path><path d="M242 206.3L272 238.1L288 230.4Z" fill="#7943fb" stroke="#7943fb"></path><path d="M288 230.4L272 238.1L282 265Z" fill="#834ffc" stroke="#834ffc"></path><path d="M227 327.7L256 356.9L280 331Z" fill="#570df8" stroke="#570df8"></path><path d="M271 457.3L321 470.4L325 443.4Z" fill="#6425f9" stroke="#6425f9"></path><path d="M325 443.4L321 470.4L374 457.6Z" fill="#6425f9" stroke="#6425f9"></path><path d="M450 88.7L447 101.7L466 67.6Z" fill="#6f35fa" stroke="#6f35fa"></path><path d="M542 137.4L447 101.7L479 161.6Z" fill="#6425f9" stroke="#6425f9"></path><path d="M347 157.6L311 127.4L331 164.3Z" fill="#ad88ff" stroke="#ad88ff"></path><path d="M236 271L280 331L282 265Z" fill="#570df8" stroke="#570df8"></path><path d="M280 331L256 356.9L319 350.9Z" fill="#834ffc" stroke="#834ffc"></path><path d="M580 139.7L554 114.6L542 137.4Z" fill="#ad88ff" stroke="#ad88ff"></path><path d="M673 404.7L655 359.9L636 424.6Z" fill="#6f35fa" stroke="#6f35fa"></path><path d="M673 404.7L679 378.6L655 359.9Z" fill="#ad88ff" stroke="#ad88ff"></path><path d="M674 330.9L685 270.3L591 302Z" fill="#6425f9" stroke="#6425f9"></path><path d="M587 543.1L604 488.4L579 489.3Z" fill="#9d72fe" stroke="#9d72fe"></path><path d="M596 483.6L604 488.4L589 473.4Z" fill="#9567fe" stroke="#9567fe"></path><path d="M630 484.4L604 488.4L659 506.4Z" fill="#ad88ff" stroke="#ad88ff"></path><path d="M710 246.1L685 270.3L764 294Z" fill="#6f35fa" stroke="#6f35fa"></path><path d="M676 446.7L673 404.7L636 424.6Z" fill="#b593ff" stroke="#b593ff"></path><path d="M256 356.9L267 408.6L319 350.9Z" fill="#6425f9" stroke="#6425f9"></path><path d="M466 67.6L447 101.7L542 137.4Z" fill="#9567fe" stroke="#9567fe"></path><path d="M342 70.9L311 127.4L347 157.6Z" fill="#6f35fa" stroke="#6f35fa"></path><path d="M271 457.3L272 435.7L250 458.4Z" fill="#834ffc" stroke="#834ffc"></path><path d="M267 408.6L272 435.7L325 443.4Z" fill="#7943fb" stroke="#7943fb"></path><path d="M587 543.1L579 489.3L525 513.3Z" fill="#6425f9" stroke="#6425f9"></path><path d="M604 488.4L630 484.4L589 473.4Z" fill="#6425f9" stroke="#6425f9"></path><path d="M294 512.1L369 525.4L321 470.4Z" fill="#6f35fa" stroke="#6f35fa"></path><path d="M321 470.4L369 525.4L374 457.6Z" fill="#b593ff" stroke="#b593ff"></path><path d="M676 446.7L694 396.9L673 404.7Z" fill="#6425f9" stroke="#6425f9"></path><path d="M673 404.7L694 396.9L679 378.6Z" fill="#ad88ff" stroke="#ad88ff"></path><path d="M679 378.6L762 313L674 330.9Z" fill="#834ffc" stroke="#834ffc"></path><path d="M242 206.3L236 271L272 238.1Z" fill="#8c5bfd" stroke="#8c5bfd"></path><path d="M272 238.1L236 271L282 265Z" fill="#834ffc" stroke="#834ffc"></path><path d="M256 356.9L244 426.6L267 408.6Z" fill="#a57dff" stroke="#a57dff"></path><path d="M641 138.4L596 181.4L628 201.1Z" fill="#6425f9" stroke="#6425f9"></path><path d="M580 139.7L581 101.9L554 114.6Z" fill="#6425f9" stroke="#6425f9"></path><path d="M554 114.6L466 67.6L542 137.4Z" fill="#7943fb" stroke="#7943fb"></path><path d="M641 138.4L628 201.1L674 140.6Z" fill="#9567fe" stroke="#9567fe"></path><path d="M369 525.4L399 548.1L403 460.6Z" fill="#570df8" stroke="#570df8"></path><path d="M236 271L227 327.7L280 331Z" fill="#a57dff" stroke="#a57dff"></path><path d="M630 484.4L676 446.7L636 424.6Z" fill="#6425f9" stroke="#6425f9"></path><path d="M244 426.6L272 435.7L267 408.6Z" fill="#6425f9" stroke="#6425f9"></path><path d="M272 435.7L271 457.3L325 443.4Z" fill="#6425f9" stroke="#6425f9"></path><path d="M369 525.4L353 560.3L399 548.1Z" fill="#ad88ff" stroke="#ad88ff"></path><path d="M674 140.6L628 201.1L697 159.6Z" fill="#7943fb" stroke="#7943fb"></path><path d="M397 75.6L347 157.6L447 101.7Z" fill="#570df8" stroke="#570df8"></path><path d="M255 142.6L242 206.3L288 230.4Z" fill="#ad88ff" stroke="#ad88ff"></path><path d="M563 67.6L466 67.6L554 114.6Z" fill="#b593ff" stroke="#b593ff"></path><path d="M450 88.7L397 75.6L447 101.7Z" fill="#834ffc" stroke="#834ffc"></path><path d="M762 313L685 270.3L674 330.9Z" fill="#570df8" stroke="#570df8"></path><path d="M685 270.3L710 246.1L665 238.3Z" fill="#b593ff" stroke="#b593ff"></path><path d="M461 48.9L397 75.6L450 88.7Z" fill="#8c5bfd" stroke="#8c5bfd"></path><path d="M202 430.4L244 426.6L188 391.9Z" fill="#a57dff" stroke="#a57dff"></path><path d="M255 142.6L288 230.4L331 164.3Z" fill="#6f35fa" stroke="#6f35fa"></path><path d="M236 271L220 267.3L227 327.7Z" fill="#b593ff" stroke="#b593ff"></path><path d="M483 600L534 561.3L502 521.1Z" fill="#9567fe" stroke="#9567fe"></path><path d="M502 521.1L534 561.3L525 513.3Z" fill="#6425f9" stroke="#6425f9"></path><path d="M534 561.3L551 557.1L525 513.3Z" fill="#6425f9" stroke="#6425f9"></path><path d="M630 484.4L659 506.4L676 446.7Z" fill="#570df8" stroke="#570df8"></path><path d="M242 206.3L220 267.3L236 271Z" fill="#7943fb" stroke="#7943fb"></path><path d="M573 553.3L587 543.1L525 513.3Z" fill="#8c5bfd" stroke="#8c5bfd"></path><path d="M342 70.9L307 117.7L311 127.4Z" fill="#8c5bfd" stroke="#8c5bfd"></path><path d="M311 127.4L255 142.6L331 164.3Z" fill="#9d72fe" stroke="#9d72fe"></path><path d="M613 600L573 553.3L551 557.1Z" fill="#ad88ff" stroke="#ad88ff"></path><path d="M551 557.1L573 553.3L525 513.3Z" fill="#9567fe" stroke="#9567fe"></path><path d="M244 426.6L250 458.4L272 435.7Z" fill="#8c5bfd" stroke="#8c5bfd"></path><path d="M271 457.3L294 512.1L321 470.4Z" fill="#8c5bfd" stroke="#8c5bfd"></path><path d="M232 508.3L294 512.1L271 457.3Z" fill="#9567fe" stroke="#9567fe"></path><path d="M631 47.9L563 67.6L581 101.9Z" fill="#7943fb" stroke="#7943fb"></path><path d="M581 101.9L563 67.6L554 114.6Z" fill="#b593ff" stroke="#b593ff"></path><path d="M523 0L461 48.9L466 67.6Z" fill="#6425f9" stroke="#6425f9"></path><path d="M466 67.6L461 48.9L450 88.7Z" fill="#7943fb" stroke="#7943fb"></path><path d="M674 506.4L659 506.4L667 544.3Z" fill="#9d72fe" stroke="#9d72fe"></path><path d="M587 543.1L659 506.4L604 488.4Z" fill="#6425f9" stroke="#6425f9"></path><path d="M724 479.4L753 402.7L694 396.9Z" fill="#7943fb" stroke="#7943fb"></path><path d="M697 159.6L628 201.1L665 238.3Z" fill="#570df8" stroke="#570df8"></path><path d="M641 138.4L629 96.7L580 139.7Z" fill="#9567fe" stroke="#9567fe"></path><path d="M735 200.3L722 220.3L801 267.1Z" fill="#7943fb" stroke="#7943fb"></path><path d="M710 246.1L722 220.3L665 238.3Z" fill="#ad88ff" stroke="#ad88ff"></path><path d="M684 117.7L629 96.7L641 138.4Z" fill="#570df8" stroke="#570df8"></path><path d="M294 512.1L353 560.3L369 525.4Z" fill="#b593ff" stroke="#b593ff"></path><path d="M452 600L483 600L502 521.1Z" fill="#9d72fe" stroke="#9d72fe"></path><path d="M722 220.3L697 159.6L665 238.3Z" fill="#834ffc" stroke="#834ffc"></path><path d="M674 140.6L684 117.7L641 138.4Z" fill="#ad88ff" stroke="#ad88ff"></path><path d="M269 117.7L255 142.6L311 127.4Z" fill="#b593ff" stroke="#b593ff"></path><path d="M242 206.3L150 223.1L220 267.3Z" fill="#6f35fa" stroke="#6f35fa"></path><path d="M397 75.6L342 70.9L347 157.6Z" fill="#6f35fa" stroke="#6f35fa"></path><path d="M307 117.7L269 117.7L311 127.4Z" fill="#b593ff" stroke="#b593ff"></path><path d="M334 63.9L342 70.9L346 55.7Z" fill="#a57dff" stroke="#a57dff"></path><path d="M667 544.3L659 506.4L587 543.1Z" fill="#8c5bfd" stroke="#8c5bfd"></path><path d="M659 506.4L674 506.4L676 446.7Z" fill="#6425f9" stroke="#6425f9"></path><path d="M220 267.3L191 327.7L227 327.7Z" fill="#9d72fe" stroke="#9d72fe"></path><path d="M227 327.7L188 391.9L256 356.9Z" fill="#9d72fe" stroke="#9d72fe"></path><path d="M244 426.6L202 430.4L250 458.4Z" fill="#b593ff" stroke="#b593ff"></path><path d="M162 304L191 327.7L220 267.3Z" fill="#570df8" stroke="#570df8"></path><path d="M232 508.3L289 529.4L294 512.1Z" fill="#9d72fe" stroke="#9d72fe"></path><path d="M294 512.1L289 529.4L353 560.3Z" fill="#6f35fa" stroke="#6f35fa"></path><path d="M292 66.7L269 117.7L307 117.7Z" fill="#7943fb" stroke="#7943fb"></path><path d="M452 600L502 521.1L399 548.1Z" fill="#7943fb" stroke="#7943fb"></path><path d="M534 561.3L525 596.1L551 557.1Z" fill="#a57dff" stroke="#a57dff"></path><path d="M618 600L667 544.3L587 543.1Z" fill="#9567fe" stroke="#9567fe"></path><path d="M292 66.7L265 118.4L269 117.7Z" fill="#7943fb" stroke="#7943fb"></path><path d="M269 117.7L265 118.4L255 142.6Z" fill="#9d72fe" stroke="#9d72fe"></path><path d="M441 600L452 600L399 548.1Z" fill="#ad88ff" stroke="#ad88ff"></path><path d="M387 600L441 600L399 548.1Z" fill="#8c5bfd" stroke="#8c5bfd"></path><path d="M483 600L525 596.1L534 561.3Z" fill="#570df8" stroke="#570df8"></path><path d="M346 55.7L342 70.9L397 75.6Z" fill="#6f35fa" stroke="#6f35fa"></path><path d="M342 70.9L334 63.9L307 117.7Z" fill="#9567fe" stroke="#9567fe"></path><path d="M392 28.9L346 55.7L397 75.6Z" fill="#ad88ff" stroke="#ad88ff"></path><path d="M764 294L722 220.3L710 246.1Z" fill="#834ffc" stroke="#834ffc"></path><path d="M722 220.3L735 200.3L697 159.6Z" fill="#9567fe" stroke="#9567fe"></path><path d="M762 313L679 378.6L694 396.9Z" fill="#7943fb" stroke="#7943fb"></path><path d="M188 391.9L244 426.6L256 356.9Z" fill="#ad88ff" stroke="#ad88ff"></path><path d="M250 458.4L232 508.3L271 457.3Z" fill="#b593ff" stroke="#b593ff"></path><path d="M695 107.7L684 117.7L718 118.4Z" fill="#9567fe" stroke="#9567fe"></path><path d="M697 159.6L684 117.7L674 140.6Z" fill="#ad88ff" stroke="#ad88ff"></path><path d="M629 96.7L631 47.9L581 101.9Z" fill="#ad88ff" stroke="#ad88ff"></path><path d="M774 327L762 313L694 396.9Z" fill="#9d72fe" stroke="#9d72fe"></path><path d="M191 327.7L188 391.9L227 327.7Z" fill="#ad88ff" stroke="#ad88ff"></path><path d="M762 313L764 294L685 270.3Z" fill="#a57dff" stroke="#a57dff"></path><path d="M202 430.4L225 480.3L250 458.4Z" fill="#7943fb" stroke="#7943fb"></path><path d="M724 479.4L694 396.9L676 446.7Z" fill="#6425f9" stroke="#6425f9"></path><path d="M762 313L767 294.1L764 294Z" fill="#9567fe" stroke="#9567fe"></path><path d="M379 600L399 548.1L353 560.3Z" fill="#8c5bfd" stroke="#8c5bfd"></path><path d="M379 600L387 600L399 548.1Z" fill="#ad88ff" stroke="#ad88ff"></path><path d="M253 542.3L298 557.1L289 529.4Z" fill="#834ffc" stroke="#834ffc"></path><path d="M289 529.4L298 557.1L353 560.3Z" fill="#6425f9" stroke="#6425f9"></path><path d="M461 48.9L392 28.9L397 75.6Z" fill="#6425f9" stroke="#6425f9"></path><path d="M420 0L392 28.9L461 48.9Z" fill="#834ffc" stroke="#834ffc"></path><path d="M794 316.9L767 294.1L762 313Z" fill="#ad88ff" stroke="#ad88ff"></path><path d="M764 294L801 267.1L722 220.3Z" fill="#570df8" stroke="#570df8"></path><path d="M303 600L379 600L353 560.3Z" fill="#8c5bfd" stroke="#8c5bfd"></path><path d="M192 130.6L220 152.4L265 118.4Z" fill="#a57dff" stroke="#a57dff"></path><path d="M265 118.4L220 152.4L255 142.6Z" fill="#8c5bfd" stroke="#8c5bfd"></path><path d="M255 142.6L220 152.4L242 206.3Z" fill="#834ffc" stroke="#834ffc"></path><path d="M613 600L587 543.1L573 553.3Z" fill="#9d72fe" stroke="#9d72fe"></path><path d="M674 506.4L724 479.4L676 446.7Z" fill="#ad88ff" stroke="#ad88ff"></path><path d="M742 518.3L724 479.4L674 506.4Z" fill="#6f35fa" stroke="#6f35fa"></path><path d="M753 402.7L774 327L694 396.9Z" fill="#8c5bfd" stroke="#8c5bfd"></path><path d="M225 480.3L232 508.3L250 458.4Z" fill="#834ffc" stroke="#834ffc"></path><path d="M159 460.6L232 508.3L225 480.3Z" fill="#834ffc" stroke="#834ffc"></path><path d="M302 0L292 66.7L334 63.9Z" fill="#b593ff" stroke="#b593ff"></path><path d="M334 63.9L292 66.7L307 117.7Z" fill="#570df8" stroke="#570df8"></path><path d="M302 0L334 63.9L346 55.7Z" fill="#8c5bfd" stroke="#8c5bfd"></path><path d="M718 118.4L684 117.7L697 159.6Z" fill="#6f35fa" stroke="#6f35fa"></path><path d="M684 117.7L675 74.6L629 96.7Z" fill="#b593ff" stroke="#b593ff"></path><path d="M150 223.1L162 304L220 267.3Z" fill="#9567fe" stroke="#9567fe"></path><path d="M191 327.7L158 397.9L188 391.9Z" fill="#b593ff" stroke="#b593ff"></path><path d="M703 576.1L683 540.1L667 544.3Z" fill="#834ffc" stroke="#834ffc"></path><path d="M667 544.3L683 540.1L674 506.4Z" fill="#834ffc" stroke="#834ffc"></path><path d="M303 600L390 615.1L379 600Z" fill="#9d72fe" stroke="#9d72fe"></path><path d="M379 600L390 615.1L387 600Z" fill="#570df8" stroke="#570df8"></path><path d="M387 600L390 615.1L441 600Z" fill="#8c5bfd" stroke="#8c5bfd"></path><path d="M441 600L390 615.1L452 600Z" fill="#9567fe" stroke="#9567fe"></path><path d="M452 600L390 615.1L483 600Z" fill="#8c5bfd" stroke="#8c5bfd"></path><path d="M483 600L613 600L525 596.1Z" fill="#a57dff" stroke="#a57dff"></path><path d="M675 74.6L631 47.9L629 96.7Z" fill="#7943fb" stroke="#7943fb"></path><path d="M523 0L456 0L461 48.9Z" fill="#ad88ff" stroke="#ad88ff"></path><path d="M232 508.3L253 542.3L289 529.4Z" fill="#6425f9" stroke="#6425f9"></path><path d="M298 557.1L303 600L353 560.3Z" fill="#8c5bfd" stroke="#8c5bfd"></path><path d="M523 0L466 67.6L563 67.6Z" fill="#9567fe" stroke="#9567fe"></path><path d="M392 28.9L328 -6.1L346 55.7Z" fill="#9d72fe" stroke="#9d72fe"></path><path d="M456 0L452 -0.1L461 48.9Z" fill="#9d72fe" stroke="#9d72fe"></path><path d="M695 107.7L675 74.6L684 117.7Z" fill="#b593ff" stroke="#b593ff"></path><path d="M734 135.4L697 159.6L735 200.3Z" fill="#834ffc" stroke="#834ffc"></path><path d="M734 135.4L718 118.4L697 159.6Z" fill="#834ffc" stroke="#834ffc"></path><path d="M717 37.9L675 69.7L675 74.6Z" fill="#570df8" stroke="#570df8"></path><path d="M525 596.1L613 600L551 557.1Z" fill="#b593ff" stroke="#b593ff"></path><path d="M390 615.1L613 600L483 600Z" fill="#834ffc" stroke="#834ffc"></path><path d="M631 47.9L569 11.9L563 67.6Z" fill="#ad88ff" stroke="#ad88ff"></path><path d="M452 -0.1L420 0L461 48.9Z" fill="#9d72fe" stroke="#9d72fe"></path><path d="M766 178.6L734 135.4L735 200.3Z" fill="#6425f9" stroke="#6425f9"></path><path d="M766 178.6L735 200.3L823 227.3Z" fill="#ad88ff" stroke="#ad88ff"></path><path d="M569 11.9L523 0L563 67.6Z" fill="#6f35fa" stroke="#6f35fa"></path><path d="M456 0L523 0L452 -0.1Z" fill="#a57dff" stroke="#a57dff"></path><path d="M675 74.6L675 69.7L631 47.9Z" fill="#8c5bfd" stroke="#8c5bfd"></path><path d="M593 2.9L572 0L569 11.9Z" fill="#8c5bfd" stroke="#8c5bfd"></path><path d="M717 37.9L675 74.6L695 107.7Z" fill="#6f35fa" stroke="#6f35fa"></path><path d="M717 37.9L695 107.7L718 118.4Z" fill="#6425f9" stroke="#6425f9"></path><path d="M390 615.1L618 600L613 600Z" fill="#9567fe" stroke="#9567fe"></path><path d="M613 600L618 600L587 543.1Z" fill="#9d72fe" stroke="#9d72fe"></path><path d="M162 304L158 397.9L191 327.7Z" fill="#6425f9" stroke="#6425f9"></path><path d="M188 391.9L158 397.9L202 430.4Z" fill="#6425f9" stroke="#6425f9"></path><path d="M202 430.4L159 460.6L225 480.3Z" fill="#a57dff" stroke="#a57dff"></path><path d="M222 590.1L265 600L253 542.3Z" fill="#ad88ff" stroke="#ad88ff"></path><path d="M811 347.7L794 316.9L774 327Z" fill="#9d72fe" stroke="#9d72fe"></path><path d="M774 327L794 316.9L762 313Z" fill="#834ffc" stroke="#834ffc"></path><path d="M804 299.9L794 316.9L811 347.7Z" fill="#8c5bfd" stroke="#8c5bfd"></path><path d="M801 267.1L764 294L767 294.1Z" fill="#a57dff" stroke="#a57dff"></path><path d="M265 600L303 600L298 557.1Z" fill="#9567fe" stroke="#9567fe"></path><path d="M593 2.9L569 11.9L631 47.9Z" fill="#9567fe" stroke="#9567fe"></path><path d="M569 11.9L572 0L523 0Z" fill="#7943fb" stroke="#7943fb"></path><path d="M523 0L328 -6.1L452 -0.1Z" fill="#834ffc" stroke="#834ffc"></path><path d="M178 152.4L242 206.3L220 152.4Z" fill="#ad88ff" stroke="#ad88ff"></path><path d="M178 152.4L150 223.1L242 206.3Z" fill="#9d72fe" stroke="#9d72fe"></path><path d="M162 304L111 307.1L158 397.9Z" fill="#ad88ff" stroke="#ad88ff"></path><path d="M183 113.7L192 130.6L191 88.6Z" fill="#6f35fa" stroke="#6f35fa"></path><path d="M811 347.7L774 327L753 402.7Z" fill="#b593ff" stroke="#b593ff"></path><path d="M794 316.9L804 299.9L767 294.1Z" fill="#a57dff" stroke="#a57dff"></path><path d="M804 299.9L801 267.1L767 294.1Z" fill="#7943fb" stroke="#7943fb"></path><path d="M192 130.6L178 152.4L220 152.4Z" fill="#a57dff" stroke="#a57dff"></path><path d="M611 0L593 2.9L631 47.9Z" fill="#8c5bfd" stroke="#8c5bfd"></path><path d="M183 113.7L186 133.6L192 130.6Z" fill="#8c5bfd" stroke="#8c5bfd"></path><path d="M192 130.6L186 133.6L178 152.4Z" fill="#ad88ff" stroke="#ad88ff"></path><path d="M683 540.1L742 518.3L674 506.4Z" fill="#6425f9" stroke="#6425f9"></path><path d="M724 479.4L800 488.6L753 402.7Z" fill="#834ffc" stroke="#834ffc"></path><path d="M703 576.1L742 518.3L683 540.1Z" fill="#9d72fe" stroke="#9d72fe"></path><path d="M815 354L811 347.7L753 402.7Z" fill="#ad88ff" stroke="#ad88ff"></path><path d="M804 299.9L812 278.1L801 267.1Z" fill="#b593ff" stroke="#b593ff"></path><path d="M155 455.4L202 430.4L158 397.9Z" fill="#9d72fe" stroke="#9d72fe"></path><path d="M155 455.4L159 460.6L202 430.4Z" fill="#570df8" stroke="#570df8"></path><path d="M253 542.3L265 600L298 557.1Z" fill="#834ffc" stroke="#834ffc"></path><path d="M802 166.6L748 113.4L766 178.6Z" fill="#8c5bfd" stroke="#8c5bfd"></path><path d="M766 178.6L748 113.4L734 135.4Z" fill="#834ffc" stroke="#834ffc"></path><path d="M734 135.4L748 113.4L718 118.4Z" fill="#9d72fe" stroke="#9d72fe"></path><path d="M648 0L611 0L631 47.9Z" fill="#7943fb" stroke="#7943fb"></path><path d="M831 269.3L812 278.1L804 299.9Z" fill="#6f35fa" stroke="#6f35fa"></path><path d="M801 267.1L823 227.3L735 200.3Z" fill="#a57dff" stroke="#a57dff"></path><path d="M130 458.3L155 455.4L158 397.9Z" fill="#570df8" stroke="#570df8"></path><path d="M648 0L631 47.9L675 69.7Z" fill="#9d72fe" stroke="#9d72fe"></path><path d="M593 2.9L611 0L572 0Z" fill="#6f35fa" stroke="#6f35fa"></path><path d="M572 0L328 -6.1L523 0Z" fill="#8c5bfd" stroke="#8c5bfd"></path><path d="M154 161.3L136 224.3L150 223.1Z" fill="#6425f9" stroke="#6425f9"></path><path d="M150 223.1L116 273L162 304Z" fill="#b593ff" stroke="#b593ff"></path><path d="M154 161.3L150 223.1L178 152.4Z" fill="#9567fe" stroke="#9567fe"></path><path d="M863 389.9L815 354L753 402.7Z" fill="#7943fb" stroke="#7943fb"></path><path d="M811 347.7L831 269.3L804 299.9Z" fill="#ad88ff" stroke="#ad88ff"></path><path d="M618 600L703 576.1L667 544.3Z" fill="#ad88ff" stroke="#ad88ff"></path><path d="M222 590.1L188 600.1L197 600Z" fill="#ad88ff" stroke="#ad88ff"></path><path d="M222 590.1L253 542.3L232 508.3Z" fill="#ad88ff" stroke="#ad88ff"></path><path d="M303 600L265 600L390 615.1Z" fill="#6425f9" stroke="#6425f9"></path><path d="M191 88.6L192 130.6L265 118.4Z" fill="#b593ff" stroke="#b593ff"></path><path d="M148 157.4L154 161.3L178 152.4Z" fill="#7943fb" stroke="#7943fb"></path><path d="M191 88.6L265 118.4L292 66.7Z" fill="#6425f9" stroke="#6425f9"></path><path d="M148 157.4L178 152.4L186 133.6Z" fill="#6425f9" stroke="#6425f9"></path><path d="M452 -0.1L328 -6.1L420 0Z" fill="#9567fe" stroke="#9567fe"></path><path d="M420 0L328 -6.1L392 28.9Z" fill="#a57dff" stroke="#a57dff"></path><path d="M900 -14.1L328 -6.1L572 0Z" fill="#ad88ff" stroke="#ad88ff"></path><path d="M94 307.1L116 273L90 214.1Z" fill="#6425f9" stroke="#6425f9"></path><path d="M136 224.3L116 273L150 223.1Z" fill="#ad88ff" stroke="#ad88ff"></path><path d="M328 -6.1L302 0L346 55.7Z" fill="#6f35fa" stroke="#6f35fa"></path><path d="M183 113.7L148 157.4L186 133.6Z" fill="#7943fb" stroke="#7943fb"></path><path d="M154 161.3L148 157.4L136 224.3Z" fill="#570df8" stroke="#570df8"></path><path d="M116 273L111 307.1L162 304Z" fill="#9d72fe" stroke="#9d72fe"></path><path d="M218 0L191 88.6L292 66.7Z" fill="#b593ff" stroke="#b593ff"></path><path d="M118 132.4L120 154.6L148 157.4Z" fill="#6425f9" stroke="#6425f9"></path><path d="M717 37.9L648 0L675 69.7Z" fill="#a57dff" stroke="#a57dff"></path><path d="M611 0L900 -14.1L572 0Z" fill="#9567fe" stroke="#9567fe"></path><path d="M831 269.3L801 267.1L812 278.1Z" fill="#8c5bfd" stroke="#8c5bfd"></path><path d="M831 269.3L823 227.3L801 267.1Z" fill="#ad88ff" stroke="#ad88ff"></path><path d="M900 286L831 269.3L811 347.7Z" fill="#570df8" stroke="#570df8"></path><path d="M823 227.3L802 166.6L766 178.6Z" fill="#ad88ff" stroke="#ad88ff"></path><path d="M748 113.4L717 37.9L718 118.4Z" fill="#570df8" stroke="#570df8"></path><path d="M390 615.1L703 600L618 600Z" fill="#b593ff" stroke="#b593ff"></path><path d="M618 600L703 600L703 576.1Z" fill="#a57dff" stroke="#a57dff"></path><path d="M766 600L777 531.1L742 518.3Z" fill="#9d72fe" stroke="#9d72fe"></path><path d="M328 -6.1L280 0L302 0Z" fill="#834ffc" stroke="#834ffc"></path><path d="M302 0L280 0L292 66.7Z" fill="#6425f9" stroke="#6425f9"></path><path d="M113 456.4L130 458.3L158 397.9Z" fill="#9567fe" stroke="#9567fe"></path><path d="M155 455.4L130 458.3L159 460.6Z" fill="#b593ff" stroke="#b593ff"></path><path d="M222 590.1L232 508.3L188 600.1Z" fill="#570df8" stroke="#570df8"></path><path d="M797 73.9L717 37.9L748 113.4Z" fill="#b593ff" stroke="#b593ff"></path><path d="M777 531.1L800 488.6L742 518.3Z" fill="#6425f9" stroke="#6425f9"></path><path d="M742 518.3L800 488.6L724 479.4Z" fill="#b593ff" stroke="#b593ff"></path><path d="M815 354L900 286L811 347.7Z" fill="#8c5bfd" stroke="#8c5bfd"></path><path d="M328 -6.1L271 0L280 0Z" fill="#6f35fa" stroke="#6f35fa"></path><path d="M280 0L271 0L292 66.7Z" fill="#834ffc" stroke="#834ffc"></path><path d="M818 506.3L805 483.6L800 488.6Z" fill="#9567fe" stroke="#9567fe"></path><path d="M800 488.6L805 483.6L753 402.7Z" fill="#7943fb" stroke="#7943fb"></path><path d="M766 600L742 518.3L703 576.1Z" fill="#6425f9" stroke="#6425f9"></path><path d="M844 603.1L715 600L703 600Z" fill="#6425f9" stroke="#6425f9"></path><path d="M703 600L715 600L703 576.1Z" fill="#9d72fe" stroke="#9d72fe"></path><path d="M116 273L94 307.1L111 307.1Z" fill="#9d72fe" stroke="#9d72fe"></path><path d="M88 390.7L90 394.6L158 397.9Z" fill="#9d72fe" stroke="#9d72fe"></path><path d="M100 221.4L116 273L136 224.3Z" fill="#9d72fe" stroke="#9d72fe"></path><path d="M120 154.6L100 221.4L136 224.3Z" fill="#7943fb" stroke="#7943fb"></path><path d="M120 154.6L136 224.3L148 157.4Z" fill="#9567fe" stroke="#9567fe"></path><path d="M90 394.6L113 456.4L158 397.9Z" fill="#834ffc" stroke="#834ffc"></path><path d="M188 600.1L232 508.3L131 542.1Z" fill="#6425f9" stroke="#6425f9"></path><path d="M823 227.3L827 171.4L802 166.6Z" fill="#9d72fe" stroke="#9d72fe"></path><path d="M802 166.6L806 110.7L748 113.4Z" fill="#b593ff" stroke="#b593ff"></path><path d="M859 145.6L827 171.4L900 164.4Z" fill="#ad88ff" stroke="#ad88ff"></path><path d="M148 157.4L183 113.7L133 99.7Z" fill="#6425f9" stroke="#6425f9"></path><path d="M118 132.4L148 157.4L133 99.7Z" fill="#9d72fe" stroke="#9d72fe"></path><path d="M88 390.7L158 397.9L79 349.7Z" fill="#7943fb" stroke="#7943fb"></path><path d="M803 569.3L803 516.1L777 531.1Z" fill="#ad88ff" stroke="#ad88ff"></path><path d="M777 531.1L803 516.1L800 488.6Z" fill="#b593ff" stroke="#b593ff"></path><path d="M867 446.7L863 389.9L753 402.7Z" fill="#6f35fa" stroke="#6f35fa"></path><path d="M79 349.7L158 397.9L111 307.1Z" fill="#ad88ff" stroke="#ad88ff"></path><path d="M74 426.6L102 473.6L113 456.4Z" fill="#a57dff" stroke="#a57dff"></path><path d="M79 349.7L111 307.1L94 307.1Z" fill="#570df8" stroke="#570df8"></path><path d="M54 328.9L79 349.7L94 307.1Z" fill="#9d72fe" stroke="#9d72fe"></path><path d="M120 154.6L90 214.1L100 221.4Z" fill="#6425f9" stroke="#6425f9"></path><path d="M100 221.4L90 214.1L116 273Z" fill="#9d72fe" stroke="#9d72fe"></path><path d="M830 120.4L806 110.7L802 166.6Z" fill="#7943fb" stroke="#7943fb"></path><path d="M131 542.1L159 460.6L130 458.3Z" fill="#9567fe" stroke="#9567fe"></path><path d="M222 590.1L197 600L265 600Z" fill="#6425f9" stroke="#6425f9"></path><path d="M265 600L127 618.1L390 615.1Z" fill="#7943fb" stroke="#7943fb"></path><path d="M801 25.9L709 0L717 37.9Z" fill="#a57dff" stroke="#a57dff"></path><path d="M717 37.9L709 0L648 0Z" fill="#570df8" stroke="#570df8"></path><path d="M648 0L900 -14.1L611 0Z" fill="#b593ff" stroke="#b593ff"></path><path d="M803 569.3L818 506.3L803 516.1Z" fill="#ad88ff" stroke="#ad88ff"></path><path d="M803 516.1L818 506.3L800 488.6Z" fill="#9567fe" stroke="#9567fe"></path><path d="M152 73.9L183 113.7L191 88.6Z" fill="#834ffc" stroke="#834ffc"></path><path d="M120 154.6L71 155.3L90 214.1Z" fill="#a57dff" stroke="#a57dff"></path><path d="M820 96.7L802 93.7L806 110.7Z" fill="#570df8" stroke="#570df8"></path><path d="M806 110.7L802 93.7L748 113.4Z" fill="#9567fe" stroke="#9567fe"></path><path d="M142 31.7L152 73.9L191 88.6Z" fill="#7943fb" stroke="#7943fb"></path><path d="M867 446.7L753 402.7L805 483.6Z" fill="#9d72fe" stroke="#9d72fe"></path><path d="M900 216.3L827 171.4L823 227.3Z" fill="#8c5bfd" stroke="#8c5bfd"></path><path d="M152 73.9L133 99.7L183 113.7Z" fill="#8c5bfd" stroke="#8c5bfd"></path><path d="M74 426.6L113 456.4L90 394.6Z" fill="#8c5bfd" stroke="#8c5bfd"></path><path d="M113 456.4L102 473.6L130 458.3Z" fill="#a57dff" stroke="#a57dff"></path><path d="M74 426.6L90 394.6L88 390.7Z" fill="#570df8" stroke="#570df8"></path><path d="M131 542.1L232 508.3L159 460.6Z" fill="#9d72fe" stroke="#9d72fe"></path><path d="M197 600L127 618.1L265 600Z" fill="#6f35fa" stroke="#6f35fa"></path><path d="M159 -9.1L218 0L271 0Z" fill="#a57dff" stroke="#a57dff"></path><path d="M271 0L218 0L292 66.7Z" fill="#a57dff" stroke="#a57dff"></path><path d="M820 96.7L797 73.9L802 93.7Z" fill="#8c5bfd" stroke="#8c5bfd"></path><path d="M802 93.7L797 73.9L748 113.4Z" fill="#9567fe" stroke="#9567fe"></path><path d="M102 473.6L131 542.1L130 458.3Z" fill="#9567fe" stroke="#9567fe"></path><path d="M859 145.6L830 120.4L827 171.4Z" fill="#7943fb" stroke="#7943fb"></path><path d="M827 171.4L830 120.4L802 166.6Z" fill="#6f35fa" stroke="#6f35fa"></path><path d="M844 603.1L766 600L715 600Z" fill="#9d72fe" stroke="#9d72fe"></path><path d="M715 600L766 600L703 576.1Z" fill="#9567fe" stroke="#9567fe"></path><path d="M31 384.9L74 426.6L88 390.7Z" fill="#6425f9" stroke="#6425f9"></path><path d="M102 473.6L89 522.3L131 542.1Z" fill="#9567fe" stroke="#9567fe"></path><path d="M830 120.4L820 96.7L806 110.7Z" fill="#6425f9" stroke="#6425f9"></path><path d="M46 329.7L54 328.9L0 283.9Z" fill="#a57dff" stroke="#a57dff"></path><path d="M79 349.7L31 384.9L88 390.7Z" fill="#ad88ff" stroke="#ad88ff"></path><path d="M869 463.4L805 483.6L867 484.6Z" fill="#834ffc" stroke="#834ffc"></path><path d="M869 463.4L867 446.7L805 483.6Z" fill="#834ffc" stroke="#834ffc"></path><path d="M766 600L803 569.3L777 531.1Z" fill="#8c5bfd" stroke="#8c5bfd"></path><path d="M0 303.1L46 329.7L0 283.9Z" fill="#9d72fe" stroke="#9d72fe"></path><path d="M54 328.9L32 350L79 349.7Z" fill="#6f35fa" stroke="#6f35fa"></path><path d="M54 328.9L94 307.1L0 283.9Z" fill="#8c5bfd" stroke="#8c5bfd"></path><path d="M900 216.3L823 227.3L831 269.3Z" fill="#a57dff" stroke="#a57dff"></path><path d="M830 120.4L867 97.9L820 96.7Z" fill="#834ffc" stroke="#834ffc"></path><path d="M900 286L815 354L863 389.9Z" fill="#ad88ff" stroke="#ad88ff"></path><path d="M867 484.6L805 483.6L818 506.3Z" fill="#6425f9" stroke="#6425f9"></path><path d="M900 412.6L900 286L863 389.9Z" fill="#b593ff" stroke="#b593ff"></path><path d="M66 87.9L71 155.3L118 132.4Z" fill="#570df8" stroke="#570df8"></path><path d="M118 132.4L71 155.3L120 154.6Z" fill="#9d72fe" stroke="#9d72fe"></path><path d="M66 87.9L118 132.4L133 99.7Z" fill="#570df8" stroke="#570df8"></path><path d="M121 27.9L133 99.7L152 73.9Z" fill="#6f35fa" stroke="#6f35fa"></path><path d="M889 428.4L863 389.9L867 446.7Z" fill="#ad88ff" stroke="#ad88ff"></path><path d="M898 502.3L867 484.6L900 553.1Z" fill="#8c5bfd" stroke="#8c5bfd"></path><path d="M900 447.4L889 428.4L867 446.7Z" fill="#9d72fe" stroke="#9d72fe"></path><path d="M900 286L900 280.9L831 269.3Z" fill="#a57dff" stroke="#a57dff"></path><path d="M900 280.9L900 280.1L831 269.3Z" fill="#a57dff" stroke="#a57dff"></path><path d="M47 527.1L102 473.6L7 490.4Z" fill="#570df8" stroke="#570df8"></path><path d="M47 527.1L89 522.3L102 473.6Z" fill="#570df8" stroke="#570df8"></path><path d="M131 542.1L141 600L188 600.1Z" fill="#7943fb" stroke="#7943fb"></path><path d="M900 421.7L889 428.4L900 447.4Z" fill="#8c5bfd" stroke="#8c5bfd"></path><path d="M170 -0.1L142 31.7L191 88.6Z" fill="#9567fe" stroke="#9567fe"></path><path d="M122 600L141 600L131 542.1Z" fill="#b593ff" stroke="#b593ff"></path><path d="M188 600.1L127 618.1L197 600Z" fill="#a57dff" stroke="#a57dff"></path><path d="M159 -9.1L170 -0.1L218 0Z" fill="#570df8" stroke="#570df8"></path><path d="M218 0L170 -0.1L191 88.6Z" fill="#9d72fe" stroke="#9d72fe"></path><path d="M89 522.3L92 533.3L131 542.1Z" fill="#ad88ff" stroke="#ad88ff"></path><path d="M0 303.1L32 350L46 329.7Z" fill="#6425f9" stroke="#6425f9"></path><path d="M46 329.7L32 350L54 328.9Z" fill="#a57dff" stroke="#a57dff"></path><path d="M89 522.3L47 527.1L92 533.3Z" fill="#6f35fa" stroke="#6f35fa"></path><path d="M797 73.9L801 25.9L717 37.9Z" fill="#ad88ff" stroke="#ad88ff"></path><path d="M820 96.7L801 25.9L797 73.9Z" fill="#a57dff" stroke="#a57dff"></path><path d="M867 97.9L801 25.9L820 96.7Z" fill="#834ffc" stroke="#834ffc"></path><path d="M900 421.7L900 412.6L889 428.4Z" fill="#ad88ff" stroke="#ad88ff"></path><path d="M889 428.4L900 412.6L863 389.9Z" fill="#834ffc" stroke="#834ffc"></path><path d="M900 280.1L900 216.3L831 269.3Z" fill="#9d72fe" stroke="#9d72fe"></path><path d="M859 145.6L867 97.9L830 120.4Z" fill="#6f35fa" stroke="#6f35fa"></path><path d="M900 447.4L867 446.7L869 463.4Z" fill="#a57dff" stroke="#a57dff"></path><path d="M32 350L31 384.9L79 349.7Z" fill="#6425f9" stroke="#6425f9"></path><path d="M92 533.3L122 600L131 542.1Z" fill="#834ffc" stroke="#834ffc"></path><path d="M141 600L127 618.1L188 600.1Z" fill="#8c5bfd" stroke="#8c5bfd"></path><path d="M898 502.3L869 463.4L867 484.6Z" fill="#9d72fe" stroke="#9d72fe"></path><path d="M898 502.3L900 447.4L869 463.4Z" fill="#7943fb" stroke="#7943fb"></path><path d="M328 -6.1L159 -9.1L271 0Z" fill="#9567fe" stroke="#9567fe"></path><path d="M170 -0.1L159 -9.1L142 31.7Z" fill="#6f35fa" stroke="#6f35fa"></path><path d="M142 31.7L121 27.9L152 73.9Z" fill="#6f35fa" stroke="#6f35fa"></path><path d="M900 -14.1L159 -9.1L328 -6.1Z" fill="#834ffc" stroke="#834ffc"></path><path d="M844 603.1L821 600L766 600Z" fill="#b593ff" stroke="#b593ff"></path><path d="M766 600L821 600L803 569.3Z" fill="#6f35fa" stroke="#6f35fa"></path><path d="M900 553.1L867 484.6L818 506.3Z" fill="#a57dff" stroke="#a57dff"></path><path d="M125 0L121 27.9L142 31.7Z" fill="#a57dff" stroke="#a57dff"></path><path d="M900 97.6L867 97.9L859 145.6Z" fill="#9d72fe" stroke="#9d72fe"></path><path d="M900 216.3L900 164.4L827 171.4Z" fill="#9567fe" stroke="#9567fe"></path><path d="M80 600L127 618.1L122 600Z" fill="#ad88ff" stroke="#ad88ff"></path><path d="M122 600L127 618.1L141 600Z" fill="#6425f9" stroke="#6425f9"></path><path d="M121 27.9L66 87.9L133 99.7Z" fill="#6425f9" stroke="#6425f9"></path><path d="M0 283.9L94 307.1L0 267Z" fill="#834ffc" stroke="#834ffc"></path><path d="M801 25.9L810 0L709 0Z" fill="#6425f9" stroke="#6425f9"></path><path d="M709 0L900 -14.1L648 0Z" fill="#9567fe" stroke="#9567fe"></path><path d="M830 0L810 0L801 25.9Z" fill="#834ffc" stroke="#834ffc"></path><path d="M900 553.1L818 506.3L803 569.3Z" fill="#8c5bfd" stroke="#8c5bfd"></path><path d="M159 -9.1L125 0L142 31.7Z" fill="#6f35fa" stroke="#6f35fa"></path><path d="M121 27.9L46 49.7L66 87.9Z" fill="#a57dff" stroke="#a57dff"></path><path d="M94 307.1L90 214.1L0 267Z" fill="#7943fb" stroke="#7943fb"></path><path d="M32 350L0 398.7L31 384.9Z" fill="#9567fe" stroke="#9567fe"></path><path d="M0 267L90 214.1L0 218.4Z" fill="#834ffc" stroke="#834ffc"></path><path d="M821 600L844 603.1L803 569.3Z" fill="#6f35fa" stroke="#6f35fa"></path><path d="M390 615.1L844 603.1L703 600Z" fill="#b593ff" stroke="#b593ff"></path><path d="M0 218.4L90 214.1L0 187.6Z" fill="#834ffc" stroke="#834ffc"></path><path d="M7 490.4L102 473.6L74 426.6Z" fill="#570df8" stroke="#570df8"></path><path d="M92 533.3L80 600L122 600Z" fill="#8c5bfd" stroke="#8c5bfd"></path><path d="M0 415.4L74 426.6L31 384.9Z" fill="#8c5bfd" stroke="#8c5bfd"></path><path d="M0 303.1L0 398.7L32 350Z" fill="#a57dff" stroke="#a57dff"></path><path d="M159 -9.1L112 0L125 0Z" fill="#a57dff" stroke="#a57dff"></path><path d="M125 0L112 0L121 27.9Z" fill="#ad88ff" stroke="#ad88ff"></path><path d="M848 0L830 0L801 25.9Z" fill="#6f35fa" stroke="#6f35fa"></path><path d="M810 0L900 -14.1L709 0Z" fill="#6425f9" stroke="#6425f9"></path><path d="M848 0L801 25.9L867 97.9Z" fill="#6425f9" stroke="#6425f9"></path><path d="M0 187.6L90 214.1L71 155.3Z" fill="#6425f9" stroke="#6425f9"></path><path d="M0 398.7L0 415.4L31 384.9Z" fill="#6f35fa" stroke="#6f35fa"></path><path d="M0 540.3L46 543.1L47 527.1Z" fill="#ad88ff" stroke="#ad88ff"></path><path d="M47 527.1L46 543.1L92 533.3Z" fill="#9567fe" stroke="#9567fe"></path><path d="M900 164.4L900 97.6L859 145.6Z" fill="#6425f9" stroke="#6425f9"></path><path d="M46 543.1L80 600L92 533.3Z" fill="#8c5bfd" stroke="#8c5bfd"></path><path d="M0 184.3L0 187.6L71 155.3Z" fill="#834ffc" stroke="#834ffc"></path><path d="M0 184.3L71 155.3L0 144.7Z" fill="#8c5bfd" stroke="#8c5bfd"></path><path d="M0 144.7L71 155.3L8 123.6Z" fill="#b593ff" stroke="#b593ff"></path><path d="M0 184.3L-2 189.3L0 187.6Z" fill="#b593ff" stroke="#b593ff"></path><path d="M0 187.6L-2 189.3L0 218.4Z" fill="#a57dff" stroke="#a57dff"></path><path d="M0 218.4L-2 189.3L0 267Z" fill="#7943fb" stroke="#7943fb"></path><path d="M0 267L-2 189.3L0 283.9Z" fill="#6f35fa" stroke="#6f35fa"></path><path d="M0 283.9L-2 189.3L0 303.1Z" fill="#834ffc" stroke="#834ffc"></path><path d="M0 303.1L-2 189.3L0 398.7Z" fill="#7943fb" stroke="#7943fb"></path><path d="M0 398.7L-2 189.3L0 415.4Z" fill="#7943fb" stroke="#7943fb"></path><path d="M844 603.1L900 553.1L803 569.3Z" fill="#9d72fe" stroke="#9d72fe"></path><path d="M898 502.3L900 553.1L900 447.4Z" fill="#834ffc" stroke="#834ffc"></path><path d="M900 57.7L848 0L867 97.9Z" fill="#7943fb" stroke="#7943fb"></path><path d="M830 0L900 -14.1L810 0Z" fill="#570df8" stroke="#570df8"></path><path d="M159 -9.1L91 0L112 0Z" fill="#8c5bfd" stroke="#8c5bfd"></path><path d="M112 0L91 0L121 27.9Z" fill="#9567fe" stroke="#9567fe"></path><path d="M844 603.1L900 559.3L900 553.1Z" fill="#8c5bfd" stroke="#8c5bfd"></path><path d="M0 475.6L7 490.4L74 426.6Z" fill="#b593ff" stroke="#b593ff"></path><path d="M46 543.1L38 600L80 600Z" fill="#a57dff" stroke="#a57dff"></path><path d="M0 415.4L0 475.6L74 426.6Z" fill="#9d72fe" stroke="#9d72fe"></path><path d="M-2 189.3L0 475.6L0 415.4Z" fill="#6f35fa" stroke="#6f35fa"></path><path d="M8 123.6L71 155.3L66 87.9Z" fill="#9d72fe" stroke="#9d72fe"></path><path d="M0 184.3L0 144.7L-2 189.3Z" fill="#9567fe" stroke="#9567fe"></path><path d="M46 49.7L8 123.6L66 87.9Z" fill="#9d72fe" stroke="#9d72fe"></path><path d="M91 0L46 49.7L121 27.9Z" fill="#a57dff" stroke="#a57dff"></path><path d="M900 97.6L900 57.7L867 97.9Z" fill="#ad88ff" stroke="#ad88ff"></path><path d="M91 0L39 35.7L46 49.7Z" fill="#8c5bfd" stroke="#8c5bfd"></path><path d="M46 49.7L0 24.9L8 123.6Z" fill="#ad88ff" stroke="#ad88ff"></path><path d="M8 123.6L0 24.9L0 144.7Z" fill="#6f35fa" stroke="#6f35fa"></path><path d="M844 603.1L900 600L900 559.3Z" fill="#570df8" stroke="#570df8"></path><path d="M0 540.3L47 527.1L7 490.4Z" fill="#b593ff" stroke="#b593ff"></path><path d="M0 592.1L38 600L46 543.1Z" fill="#a57dff" stroke="#a57dff"></path><path d="M80 600L38 600L127 618.1Z" fill="#9567fe" stroke="#9567fe"></path><path d="M844 603.1L904 600L900 600Z" fill="#7943fb" stroke="#7943fb"></path><path d="M900 600L904 600L900 559.3Z" fill="#a57dff" stroke="#a57dff"></path><path d="M900 559.3L904 600L900 553.1Z" fill="#ad88ff" stroke="#ad88ff"></path><path d="M900 553.1L904 600L900 447.4Z" fill="#9d72fe" stroke="#9d72fe"></path><path d="M900 447.4L904 600L900 421.7Z" fill="#6f35fa" stroke="#6f35fa"></path><path d="M900 421.7L904 600L900 412.6Z" fill="#834ffc" stroke="#834ffc"></path><path d="M900 412.6L904 600L900 286Z" fill="#9d72fe" stroke="#9d72fe"></path><path d="M900 286L904 600L900 280.9Z" fill="#9d72fe" stroke="#9d72fe"></path><path d="M900 280.9L904 600L900 280.1Z" fill="#6f35fa" stroke="#6f35fa"></path><path d="M900 280.1L904 600L900 216.3Z" fill="#ad88ff" stroke="#ad88ff"></path><path d="M900 216.3L904 600L900 164.4Z" fill="#6f35fa" stroke="#6f35fa"></path><path d="M900 164.4L904 600L900 97.6Z" fill="#b593ff" stroke="#b593ff"></path><path d="M900 97.6L904 600L900 57.7Z" fill="#7943fb" stroke="#7943fb"></path><path d="M-2 189.3L0 540.3L0 475.6Z" fill="#a57dff" stroke="#a57dff"></path><path d="M0 475.6L0 540.3L7 490.4Z" fill="#834ffc" stroke="#834ffc"></path><path d="M904 600L900 0L900 57.7Z" fill="#9d72fe" stroke="#9d72fe"></path><path d="M900 57.7L900 0L848 0Z" fill="#ad88ff" stroke="#ad88ff"></path><path d="M848 0L900 -14.1L830 0Z" fill="#6f35fa" stroke="#6f35fa"></path><path d="M904 600L900 -14.1L900 0Z" fill="#b593ff" stroke="#b593ff"></path><path d="M900 0L900 -14.1L848 0Z" fill="#834ffc" stroke="#834ffc"></path><path d="M-2 189.3L0 592.1L0 540.3Z" fill="#7943fb" stroke="#7943fb"></path><path d="M0 540.3L0 592.1L46 543.1Z" fill="#a57dff" stroke="#a57dff"></path><path d="M-2 189.3L0 600L0 592.1Z" fill="#6f35fa" stroke="#6f35fa"></path><path d="M0 592.1L0 600L38 600Z" fill="#6425f9" stroke="#6425f9"></path><path d="M38 600L0 600L127 618.1Z" fill="#9d72fe" stroke="#9d72fe"></path><path d="M10 0L0 24.9L39 35.7Z" fill="#570df8" stroke="#570df8"></path><path d="M39 35.7L0 24.9L46 49.7Z" fill="#834ffc" stroke="#834ffc"></path><path d="M0 144.7L0 24.9L-2 189.3Z" fill="#b593ff" stroke="#b593ff"></path><path d="M91 0L10 0L39 35.7Z" fill="#9567fe" stroke="#9567fe"></path><path d="M159 -9.1L10 0L91 0Z" fill="#a57dff" stroke="#a57dff"></path><path d="M159 -9.1L0 0L10 0Z" fill="#b593ff" stroke="#b593ff"></path><path d="M10 0L0 0L0 24.9Z" fill="#a57dff" stroke="#a57dff"></path><path d="M0 24.9L0 0L-2 189.3Z" fill="#ad88ff" stroke="#ad88ff"></path></g></svg>