<svg id="visual" viewBox="0 0 960 540" width="960" height="540" xmlns="http://www.w3.org/2000/svg" xmlns:xlink="http://www.w3.org/1999/xlink" version="1.1"><rect x="0" y="0" width="960" height="540" fill="#FFFFFF"></rect><path d="M291 0L287.8 9C284.7 18 278.3 36 272.5 54C266.7 72 261.3 90 253 108C244.7 126 233.3 144 243.3 162C253.3 180 284.7 198 286.2 216C287.7 234 259.3 252 251.2 270C243 288 255 306 268.8 324C282.7 342 298.3 360 305.8 378C313.3 396 312.7 414 298.5 432C284.3 450 256.7 468 247.7 486C238.7 504 248.3 522 253.2 531L258 540L0 540L0 531C0 522 0 504 0 486C0 468 0 450 0 432C0 414 0 396 0 378C0 360 0 342 0 324C0 306 0 288 0 270C0 252 0 234 0 216C0 198 0 180 0 162C0 144 0 126 0 108C0 90 0 72 0 54C0 36 0 18 0 9L0 0Z" fill="#5ca5f2"></path><path d="M204 0L205 9C206 18 208 36 197 54C186 72 162 90 154.8 108C147.7 126 157.3 144 167.7 162C178 180 189 198 199.8 216C210.7 234 221.3 252 216.2 270C211 288 190 306 180 324C170 342 171 360 167.7 378C164.3 396 156.7 414 157.3 432C158 450 167 468 172.7 486C178.3 504 180.7 522 181.8 531L183 540L0 540L0 531C0 522 0 504 0 486C0 468 0 450 0 432C0 414 0 396 0 378C0 360 0 342 0 324C0 306 0 288 0 270C0 252 0 234 0 216C0 198 0 180 0 162C0 144 0 126 0 108C0 90 0 72 0 54C0 36 0 18 0 9L0 0Z" fill="#0073ff"></path><path d="M77 0L83.3 9C89.7 18 102.3 36 99.8 54C97.3 72 79.7 90 75.2 108C70.7 126 79.3 144 92.7 162C106 180 124 198 130.3 216C136.7 234 131.3 252 126.8 270C122.3 288 118.7 306 119.7 324C120.7 342 126.3 360 118.3 378C110.3 396 88.7 414 81.3 432C74 450 81 468 85 486C89 504 90 522 90.5 531L91 540L0 540L0 531C0 522 0 504 0 486C0 468 0 450 0 432C0 414 0 396 0 378C0 360 0 342 0 324C0 306 0 288 0 270C0 252 0 234 0 216C0 198 0 180 0 162C0 144 0 126 0 108C0 90 0 72 0 54C0 36 0 18 0 9L0 0Z" fill="#570df8"></path></svg>